<svg xmlns="http://www.w3.org/2000/svg" version="1.1" xmlns:xlink="http://www.w3.org/1999/xlink" width="1000" height="1000"><metadata><rdf:RDF xmlns:rdf="http://www.w3.org/1999/02/22-rdf-syntax-ns#" xmlns:dc="http://purl.org/dc/elements/1.1/"><rdf:Description><dc:creator>RealFaviconGenerator</dc:creator><dc:source>https://realfavicongenerator.net</dc:source></rdf:Description></rdf:RDF></metadata><style>
    #light-icon {
      display: inline;
    }
    #dark-icon {
      display: none;
    }

    @media (prefers-color-scheme: dark) {
      #light-icon {
        display: none;
      }
      #dark-icon {
        display: inline;
      }
    }
  </style><g id="light-icon"><svg xmlns="http://www.w3.org/2000/svg" version="1.1" xmlns:xlink="http://www.w3.org/1999/xlink" width="1000" height="1000"><g clip-path="url(#SvgjsClipPath1119)"><rect width="1000" height="1000" fill="#ffffff"></rect><g transform="matrix(5.591947595462534,0,0,5.591947595462534,150,150)"><svg xmlns="http://www.w3.org/2000/svg" id="Layer_1" data-name="Layer 1" viewBox="0 0 125.18 125.18" width="125.18" height="125.18"><defs>
    <style>
      .cls-1 {
        fill: #eb5936;
      }
    </style>
  <clipPath id="SvgjsClipPath1119"><rect width="1000" height="1000" x="0" y="0" rx="350" ry="350"></rect></clipPath></defs><path class="cls-1" d="M121.68,52.42h0c-4.66-4.66-12.23-4.66-16.89,0l-17.74,17.74-7.57-7.57,17.74-17.74c4.66-4.66,4.66-12.23,0-16.89h0c-4.66-4.66-12.23-4.66-16.89,0l-17.74,17.74-7.57-7.57,17.74-17.74c4.66-4.66,4.66-12.23,0-16.89s-12.23-4.66-16.89,0l-26.19,26.19L3.5,55.87c-4.66,4.66-4.66,12.23,0,16.89,4.66,4.66,12.23,4.66,16.89,0l17.74-17.74,7.57,7.57-17.74,17.74c-4.66,4.66-4.66,12.23,0,16.89h0c4.66,4.66,12.23,4.66,16.89,0l17.74-17.74,7.57,7.57-17.74,17.74c-4.66,4.66-4.66,12.23,0,16.89h0c4.66,4.66,12.23,4.66,16.89,0l26.19-26.19,26.19-26.19c4.66-4.66,4.66-12.23,0-16.89Z"></path></svg></g></g></svg></g><g id="dark-icon"><svg xmlns="http://www.w3.org/2000/svg" version="1.1" xmlns:xlink="http://www.w3.org/1999/xlink" width="1000" height="1000"><g clip-path="url(#SvgjsClipPath1120)"><rect width="1000" height="1000" fill="#070707"></rect><g transform="matrix(7.189646908451829,0,0,7.189646908451829,50,50)"><svg xmlns="http://www.w3.org/2000/svg" id="Layer_1" data-name="Layer 1" viewBox="0 0 125.18 125.18" width="125.18" height="125.18"><defs>
    <style>
      .cls-1 {
        fill: #eb5936;
      }
    </style>
  <clipPath id="SvgjsClipPath1120"><rect width="1000" height="1000" x="0" y="0" rx="350" ry="350"></rect></clipPath></defs><path class="cls-1" d="M121.68,52.42h0c-4.66-4.66-12.23-4.66-16.89,0l-17.74,17.74-7.57-7.57,17.74-17.74c4.66-4.66,4.66-12.23,0-16.89h0c-4.66-4.66-12.23-4.66-16.89,0l-17.74,17.74-7.57-7.57,17.74-17.74c4.66-4.66,4.66-12.23,0-16.89s-12.23-4.66-16.89,0l-26.19,26.19L3.5,55.87c-4.66,4.66-4.66,12.23,0,16.89,4.66,4.66,12.23,4.66,16.89,0l17.74-17.74,7.57,7.57-17.74,17.74c-4.66,4.66-4.66,12.23,0,16.89h0c4.66,4.66,12.23,4.66,16.89,0l17.74-17.74,7.57,7.57-17.74,17.74c-4.66,4.66-4.66,12.23,0,16.89h0c4.66,4.66,12.23,4.66,16.89,0l26.19-26.19,26.19-26.19c4.66-4.66,4.66-12.23,0-16.89Z"></path></svg></g></g></svg></g></svg>