<?xml version="1.0" encoding="UTF-8"?>
<svg id="Layer_1" data-name="Layer 1" xmlns="http://www.w3.org/2000/svg" viewBox="0 0 125.18 125.18">
  <defs>
    <style>
      .cls-1 {
        fill: #eb5936;
      }
    </style>
  </defs>
  <path class="cls-1" d="M121.68,52.42h0c-4.66-4.66-12.23-4.66-16.89,0l-17.74,17.74-7.57-7.57,17.74-17.74c4.66-4.66,4.66-12.23,0-16.89h0c-4.66-4.66-12.23-4.66-16.89,0l-17.74,17.74-7.57-7.57,17.74-17.74c4.66-4.66,4.66-12.23,0-16.89s-12.23-4.66-16.89,0l-26.19,26.19L3.5,55.87c-4.66,4.66-4.66,12.23,0,16.89,4.66,4.66,12.23,4.66,16.89,0l17.74-17.74,7.57,7.57-17.74,17.74c-4.66,4.66-4.66,12.23,0,16.89h0c4.66,4.66,12.23,4.66,16.89,0l17.74-17.74,7.57,7.57-17.74,17.74c-4.66,4.66-4.66,12.23,0,16.89h0c4.66,4.66,12.23,4.66,16.89,0l26.19-26.19,26.19-26.19c4.66-4.66,4.66-12.23,0-16.89Z"/>
</svg>