<?xml version="1.0" encoding="UTF-8"?>
<svg id="Layer_1" data-name="Layer 1" xmlns="http://www.w3.org/2000/svg" viewBox="0 0 673.55 130.84">
  <defs>
    <style>
      .cls-1 {
        fill: #fff;
      }

      .cls-2 {
        fill: #eb5936;
      }
    </style>
  </defs>
  <path class="cls-2" d="M121.68,58.08h0c-4.66-4.66-12.23-4.66-16.89,0l-17.74,17.74-7.57-7.57,17.74-17.74c4.66-4.66,4.66-12.23,0-16.89h0c-4.66-4.66-12.23-4.66-16.89,0l-17.74,17.74-7.57-7.57,17.74-17.74c4.66-4.66,4.66-12.23,0-16.89s-12.23-4.66-16.89,0l-26.19,26.19L3.5,61.53c-4.66,4.66-4.66,12.23,0,16.89,4.66,4.66,12.23,4.66,16.89,0l17.74-17.74,7.57,7.57-17.74,17.74c-4.66,4.66-4.66,12.23,0,16.89h0c4.66,4.66,12.23,4.66,16.89,0l17.74-17.74,7.57,7.57-17.74,17.74c-4.66,4.66-4.66,12.23,0,16.89h0c4.66,4.66,12.23,4.66,16.89,0l26.19-26.19,26.19-26.19c4.66-4.66,4.66-12.23,0-16.89Z"/>
  <path class="cls-1" d="M168.68,97.35c0-4.81-2.4-7.81-7.21-10.52l-14.87-8.26c-10.52-5.86-14.12-11.87-14.12-21.18v-4.96c0-8.26,5.71-24.94,26.74-24.94,14.72,0,26.44,10.07,26.44,26.74v2.25c0,2.7-2.1,4.81-4.81,4.81h-7.21c-2.7,0-4.81-2.1-4.81-4.81v-.9c0-3.15-.6-6.16-2.1-8.26-1.65-2.25-4.21-3.91-7.96-3.91-6.61,0-9.31,5.86-9.31,9.62v2.1c0,3.31,1.05,6.91,7.51,10.52l15.32,8.56c10.52,5.86,13.37,12.02,13.37,21.94v3.91c0,8.26-5.71,24.94-26.74,24.94-14.72,0-26.44-10.07-26.44-26.74v-2.25c0-2.7,2.1-4.81,4.81-4.81h7.21c2.7,0,4.81,2.1,4.81,4.81v.9c0,3.16.6,6.16,2.1,8.26,1.65,2.25,4.21,3.91,7.96,3.91,6.61,0,9.31-5.86,9.31-9.62v-2.1Z"/>
  <path class="cls-1" d="M207.51,96.3c0,4.66.75,7.66,2.7,9.77,1.95,2.1,4.21,3.16,7.06,3.16,2.7,0,5.11-1.05,6.91-3.16,1.95-2.1,2.85-5.11,2.85-9.77v-62.95c0-2.7,2.1-4.81,4.81-4.81h7.21c2.7,0,4.81,2.1,4.81,4.81v85.49c0,1.95-.6,3.46-1.65,4.51s-2.4,1.5-4.06,1.5c-1.8,0-3.46-.75-4.81-1.8l-.6-.45c-1.05-.9-1.95-1.35-3.31-1.35-1.5,0-3.16,1.2-6.01,2.25-2.55.9-5.41,1.5-8.71,1.5-5.56,0-11.57-2.1-16.08-6.46-5.56-5.11-7.96-12.32-7.96-21.18V33.35c0-2.7,2.1-4.81,4.81-4.81h7.21c2.7,0,4.81,2.1,4.81,4.81v62.95Z"/>
  <path class="cls-1" d="M263.91,121.39c-1.2,0-2.25.3-3.31,1.2l-.6.45c-1.35.9-2.85,1.8-4.66,1.8-3.16,0-5.86-1.65-5.86-6.01V4.81c0-2.7,2.1-4.81,4.81-4.81h7.21c2.71,0,4.81,2.1,4.81,4.81v14.87c0,1.95-.15,3-.15,5.41,0,2.1,1.95,3.76,3.76,3.76,2.1,0,4.81-.75,8.71-.75,13.52,0,24.04,10.22,24.04,28.4v39.96c0,19.83-12.62,28.55-24.19,28.55-3.31,0-6.31-.75-8.41-1.5-2.85-1.05-4.66-2.1-6.16-2.1ZM285.85,94.2v-35.91c0-10.22-3.16-14.87-9.77-14.87s-9.77,4.66-9.77,14.87v35.91c0,10.52,3,14.87,9.92,14.87s9.62-4.36,9.62-14.87Z"/>
  <path class="cls-1" d="M379.66,56.34c0-9.16-4.51-12.92-9.77-12.92s-9.31,3.61-9.31,12.92v62.8c0,2.7-2.1,4.81-4.81,4.81h-7.21c-2.71,0-4.81-2.1-4.81-4.81v-62.8c0-9.16-4.06-12.92-9.32-12.92s-9.77,3.61-9.77,12.92v62.8c0,2.7-2.1,4.81-4.81,4.81h-7.21c-2.7,0-4.81-2.1-4.81-4.81V33.95c0-3.76,2.55-6.01,5.86-6.01,1.8,0,3.3.75,4.66,1.8l.6.45c1.05.9,2.1,1.35,3.46,1.35s3.15-1.2,5.86-2.25c2.55-.9,5.71-1.65,8.71-1.65,5.11,0,9.31,1.35,13.07,4.36.9.6,1.95,1.05,3.16,1.05,1.05,0,1.95-.45,2.85-1.05,4.06-2.85,8.26-4.36,15.32-4.36,11.87,0,25.09,7.51,25.09,27.64v63.85c0,2.7-2.1,4.81-4.81,4.81h-7.21c-2.7,0-4.81-2.1-4.81-4.81v-62.8Z"/>
  <path class="cls-1" d="M422.24,79.63c-2.1,0-3.46,1.35-3.46,3.31v13.37c0,8.86,4.06,12.92,9.92,12.92s9.62-3.91,9.62-12.92v-.3c0-2.7,2.1-4.81,4.81-4.81h7.21c2.7,0,4.81,2.1,4.81,4.81v1.05c0,18.33-11.72,27.94-26.44,27.94s-26.74-9.01-26.74-28.4v-40.71c0-18.78,12.17-28.4,26.74-28.4s26.44,9.77,26.44,28.09v18.33c0,2.85-2.4,5.71-5.71,5.71h-27.19ZM418.78,61.6c0,2.7,1.8,3.31,3.46,3.31h11.87c2.25,0,4.21-.45,4.21-3.46v-4.51c0-8.86-3.31-13.52-9.62-13.52-5.56,0-9.92,3.61-9.92,12.92v5.26Z"/>
  <path class="cls-1" d="M460.81,44.47c-3.3,0-4.81-3-4.81-4.81v-6.16c0-2.85,2.25-4.96,4.81-4.96h2.1c1.95,0,3.31-1.5,3.31-3.46v-9.62c0-2.7,1.95-4.96,4.81-4.96h7.06c2.1,0,4.81,1.8,4.81,4.96v9.46c0,1.95,1.5,3.61,3.61,3.61h6.16c1.65,0,4.81,1.2,4.81,4.96v6.61c0,2.7-2.4,4.36-4.81,4.36h-6.16c-2.1,0-3.61,1.5-3.61,3.31v53.03c0,4.36,2.25,7.06,6.31,7.06h3.3c2.7,0,4.96,1.95,4.96,4.81v6.46c0,2.55-1.95,4.81-4.81,4.81h-4.66c-14.72,0-21.78-8.56-21.78-22.08v-54.09c0-1.95-1.35-3.31-3.31-3.31h-2.1Z"/>
  <path class="cls-1" d="M535.94,41.17c0,3-2.7,4.81-5.41,4.81h-1.5c-7.96,0-10.52,2.25-10.52,11.87v61.3c0,2.25-1.05,4.81-5.56,4.81h-6.46c-2.7,0-4.81-2.1-4.81-4.81V34.25c0-3.61,2.4-5.86,5.71-5.86,1.95,0,3.46.9,4.81,1.95l.6.45c.9.75,2.25,1.2,3.31,1.2,1.95,0,3-.75,7.06-2.25,2.55-.9,4.66-1.5,7.96-1.5,2.7,0,4.81,2.1,4.81,4.81v8.11Z"/>
  <rect class="cls-1" x="540.46" width="16.83" height="16.98" rx="4.81" ry="4.81"/>
  <rect class="cls-1" x="540.46" y="28.54" width="16.83" height="95.4" rx="4.81" ry="4.81"/>
  <path class="cls-1" d="M580.34,58.29v35.91c0,10.52,3,14.87,9.92,14.87,5.71,0,9.62-3.91,9.62-12.92v-1.05c0-2.7,2.1-4.81,4.81-4.81h7.21c2.7,0,4.81,2.1,4.81,4.81v1.95c0,18.33-11.72,27.94-26.44,27.94s-26.74-9.47-26.74-28.4v-40.71c0-19.08,12.02-28.4,26.59-28.4s26.59,10.07,26.59,27.34v1.35c0,2.7-2.1,4.81-4.81,4.81h-7.21c-2.7,0-4.81-2.1-4.81-4.81v-.45c0-6.61-3-12.32-9.77-12.32s-9.77,4.66-9.77,14.87Z"/>
  <path class="cls-1" d="M656.58,97.35c0-4.81-2.4-7.81-7.21-10.52l-14.87-8.26c-10.52-5.86-14.12-11.87-14.12-21.18v-4.96c0-8.26,5.71-24.94,26.74-24.94,14.72,0,26.44,10.07,26.44,26.74v2.25c0,2.7-2.1,4.81-4.81,4.81h-7.21c-2.71,0-4.81-2.1-4.81-4.81v-.9c0-3.15-.6-6.16-2.1-8.26-1.65-2.25-4.21-3.91-7.96-3.91-6.61,0-9.31,5.86-9.31,9.62v2.1c0,3.31,1.05,6.91,7.51,10.52l15.32,8.56c10.52,5.86,13.37,12.02,13.37,21.94v3.91c0,8.26-5.71,24.94-26.74,24.94-14.72,0-26.44-10.07-26.44-26.74v-2.25c0-2.7,2.1-4.81,4.81-4.81h7.21c2.7,0,4.81,2.1,4.81,4.81v.9c0,3.16.6,6.16,2.1,8.26,1.65,2.25,4.21,3.91,7.96,3.91,6.61,0,9.32-5.86,9.32-9.62v-2.1Z"/>
</svg>